<svg width="590" height="140" viewBox="0 0 590 140" fill="none" xmlns="http://www.w3.org/2000/svg">
<rect y="15" width="533" height="109" rx="54.5" fill="#453A3A"/>
<path d="M50.1832 97V41.7273H73.0156C77.1539 41.7273 80.7254 42.5369 83.7301 44.1562C86.7528 45.7576 89.0829 47.9976 90.7202 50.8764C92.3575 53.7372 93.1761 57.0658 93.1761 60.8622C93.1761 64.6766 92.3395 68.0142 90.6662 70.875C89.0109 73.7178 86.6449 75.9219 83.5682 77.4872C80.4915 79.0526 76.839 79.8352 72.6108 79.8352H58.5227V69.3097H70.1278C72.143 69.3097 73.8253 68.9588 75.1747 68.2571C76.5421 67.5554 77.5767 66.5748 78.2784 65.3153C78.9801 64.0379 79.331 62.5535 79.331 60.8622C79.331 59.1529 78.9801 57.6776 78.2784 56.4361C77.5767 55.1766 76.5421 54.205 75.1747 53.5213C73.8073 52.8376 72.125 52.4957 70.1278 52.4957H63.5426V97H50.1832ZM157.25 69.3636C157.25 75.4451 156.081 80.5999 153.742 84.8281C151.403 89.0563 148.236 92.268 144.242 94.4631C140.266 96.6581 135.803 97.7557 130.856 97.7557C125.89 97.7557 121.418 96.6491 117.442 94.4361C113.466 92.223 110.308 89.0114 107.969 84.8011C105.648 80.5729 104.488 75.4271 104.488 69.3636C104.488 63.2822 105.648 58.1274 107.969 53.8991C110.308 49.6709 113.466 46.4593 117.442 44.2642C121.418 42.0691 125.89 40.9716 130.856 40.9716C135.803 40.9716 140.266 42.0691 144.242 44.2642C148.236 46.4593 151.403 49.6709 153.742 53.8991C156.081 58.1274 157.25 63.2822 157.25 69.3636ZM143.594 69.3636C143.594 65.7652 143.081 62.7244 142.056 60.2415C141.048 57.7585 139.591 55.8783 137.684 54.6008C135.794 53.3234 133.518 52.6847 130.856 52.6847C128.211 52.6847 125.935 53.3234 124.027 54.6008C122.12 55.8783 120.654 57.7585 119.628 60.2415C118.621 62.7244 118.117 65.7652 118.117 69.3636C118.117 72.9621 118.621 76.0028 119.628 78.4858C120.654 80.9687 122.12 82.849 124.027 84.1264C125.935 85.4039 128.211 86.0426 130.856 86.0426C133.518 86.0426 135.794 85.4039 137.684 84.1264C139.591 82.849 141.048 80.9687 142.056 78.4858C143.081 76.0028 143.594 72.9621 143.594 69.3636ZM170.37 97V41.7273H183.729V65.0994H184.458L202.729 41.7273H218.464L198.87 66.3949L218.815 97H202.837L189.073 75.2741L183.729 82.0213V97H170.37ZM229.053 97V41.7273H267.593V52.5767H242.413V63.9119H265.623V74.7884H242.413V86.1506H267.593V97H229.053ZM301.71 97H281.28V41.7273H301.683C307.315 41.7273 312.164 42.8338 316.23 45.0469C320.314 47.2419 323.463 50.4086 325.676 54.5469C327.889 58.6671 328.996 63.5971 328.996 69.3366C328.996 75.0942 327.889 80.0421 325.676 84.1804C323.481 88.3187 320.341 91.4943 316.257 93.7074C312.173 95.9025 307.324 97 301.71 97ZM294.639 85.6108H301.197C304.292 85.6108 306.91 85.089 309.051 84.0455C311.21 82.9839 312.838 81.2656 313.936 78.8906C315.051 76.4976 315.609 73.313 315.609 69.3366C315.609 65.3603 315.051 62.1937 313.936 59.8366C312.82 57.4616 311.174 55.7524 308.997 54.7088C306.838 53.6473 304.175 53.1165 301.008 53.1165H294.639V85.6108ZM342.115 97V41.7273H380.655V52.5767H355.475V63.9119H378.685V74.7884H355.475V86.1506H380.655V97H342.115ZM407.863 41.7273L417.957 59.1889H418.388L428.59 41.7273H443.542L426.863 69.3636L444.082 97H428.752L418.388 79.3494H417.957L407.593 97H392.371L409.509 69.3636L392.803 41.7273H407.863Z" fill="white"/>
<path d="M519.274 92.8554C508.192 92.8554 498.947 85.0354 496.752 74.6453H459.883C462.489 104.859 487.919 128.565 518.89 128.565C549.862 128.565 575.319 104.859 577.898 74.6453H541.797C539.602 85.0628 530.357 92.8554 519.274 92.8554Z" fill="white"/>
<path d="M532.854 69.915C532.826 69.915 532.826 69.915 532.854 69.915C532.826 68.2471 532.524 66.6612 531.976 65.1847C530.055 60.0443 525.09 56.4077 519.274 56.4077C513.459 56.4077 508.493 60.0716 506.573 65.1847C506.025 66.6612 505.723 68.2471 505.723 69.915H505.75C505.75 71.5829 506.052 73.1687 506.601 74.6452C508.521 79.7856 513.486 83.4222 519.302 83.4222C525.118 83.4222 530.083 79.7583 532.003 74.6452C532.552 73.1961 532.854 71.5829 532.854 69.915Z" fill="white"/>
<path d="M519.302 47.0019C530.385 47.0019 539.629 54.8219 541.824 65.2121H578.694C576.087 34.9712 550.657 11.2651 519.659 11.2651C488.66 11.2651 463.257 34.9712 460.651 65.1847H496.78C498.974 54.7945 508.219 47.0019 519.302 47.0019Z" fill="#FF1C1C"/>
<path d="M519.659 11.2651C550.657 11.2651 576.087 34.9712 578.666 65.1847H541.797C539.602 54.7946 530.357 46.9746 519.274 46.9746C508.192 46.9746 498.947 54.7946 496.752 65.1847H460.651C463.257 34.9712 488.687 11.2651 519.659 11.2651ZM531.976 65.1847C532.524 66.6612 532.826 68.2471 532.826 69.915H532.854C532.854 71.5829 532.552 73.1688 532.003 74.6453C530.083 79.7857 525.118 83.4222 519.302 83.4222C513.486 83.4222 508.521 79.7583 506.601 74.6453C506.052 73.1688 505.75 71.5829 505.75 69.915H505.723C505.723 68.2471 506.025 66.6612 506.573 65.1847C508.493 60.0443 513.459 56.4078 519.274 56.4078C525.09 56.4078 530.056 60.0717 531.976 65.1847ZM518.89 128.592C487.892 128.592 462.462 104.886 459.883 74.6726H496.752C498.947 85.0628 508.192 92.8828 519.274 92.8828C530.357 92.8828 539.602 85.0628 541.797 74.6726H577.925C575.319 104.859 549.889 128.592 518.89 128.592ZM519.274 0C480.54 0 449.129 31.3073 449.129 69.915C449.129 108.523 480.54 139.83 519.274 139.83C558.009 139.83 589.447 108.55 589.447 69.915C589.447 31.2799 558.037 0 519.274 0Z" fill="#453A3A"/>
</svg>
