<svg width="532" height="116" viewBox="0 0 532 116" fill="none" xmlns="http://www.w3.org/2000/svg">
<path d="M430 7C430 3.13401 433.134 0 437 0H476.5C507.152 0 532 24.8482 532 55.5V97C532 106.941 523.941 115 514 115H438C433.582 115 430 111.418 430 107V7Z" fill="#C61A1A"/>
<path d="M5.28409 93V23.1818H34.125C39.3523 23.1818 43.8636 24.2045 47.6591 26.25C51.4773 28.2727 54.4205 31.1023 56.4886 34.7386C58.5568 38.3523 59.5909 42.5568 59.5909 47.3523C59.5909 52.1705 58.5341 56.3864 56.4205 60C54.3295 63.5909 51.3409 66.375 47.4545 68.3523C43.5682 70.3295 38.9545 71.3182 33.6136 71.3182H15.8182V58.0227H30.4773C33.0227 58.0227 35.1477 57.5795 36.8523 56.6932C38.5795 55.8068 39.8864 54.5682 40.7727 52.9773C41.6591 51.3636 42.1023 49.4886 42.1023 47.3523C42.1023 45.1932 41.6591 43.3295 40.7727 41.7614C39.8864 40.1705 38.5795 38.9432 36.8523 38.0795C35.125 37.2159 33 36.7841 30.4773 36.7841H22.1591V93H5.28409ZM140.527 58.0909C140.527 65.7727 139.05 72.2841 136.095 77.625C133.14 82.9659 129.14 87.0227 124.095 89.7955C119.072 92.5682 113.436 93.9545 107.186 93.9545C100.913 93.9545 95.2655 92.5568 90.2427 89.7614C85.22 86.9659 81.2314 82.9091 78.2768 77.5909C75.345 72.25 73.8791 65.75 73.8791 58.0909C73.8791 50.4091 75.345 43.8977 78.2768 38.5568C81.2314 33.2159 85.22 29.1591 90.2427 26.3864C95.2655 23.6136 100.913 22.2273 107.186 22.2273C113.436 22.2273 119.072 23.6136 124.095 26.3864C129.14 29.1591 133.14 33.2159 136.095 38.5568C139.05 43.8977 140.527 50.4091 140.527 58.0909ZM123.277 58.0909C123.277 53.5455 122.629 49.7045 121.334 46.5682C120.061 43.4318 118.22 41.0568 115.811 39.4432C113.425 37.8295 110.55 37.0227 107.186 37.0227C103.845 37.0227 100.97 37.8295 98.5609 39.4432C96.1518 41.0568 94.2995 43.4318 93.0041 46.5682C91.7314 49.7045 91.095 53.5455 91.095 58.0909C91.095 62.6364 91.7314 66.4773 93.0041 69.6136C94.2995 72.75 96.1518 75.125 98.5609 76.7386C100.97 78.3523 103.845 79.1591 107.186 79.1591C110.55 79.1591 113.425 78.3523 115.811 76.7386C118.22 75.125 120.061 72.75 121.334 69.6136C122.629 66.4773 123.277 62.6364 123.277 58.0909ZM157.099 93V23.1818H173.974V52.7045H174.895L197.974 23.1818H217.849L193.099 54.3409L218.292 93H198.11L180.724 65.5568L173.974 74.0795V93H157.099ZM231.225 93V23.1818H279.907V36.8864H248.1V51.2045H277.419V64.9432H248.1V79.2955H279.907V93H231.225ZM323.002 93H297.195V23.1818H322.968C330.082 23.1818 336.207 24.5795 341.343 27.375C346.502 30.1477 350.479 34.1477 353.275 39.375C356.07 44.5795 357.468 50.8068 357.468 58.0568C357.468 65.3295 356.07 71.5795 353.275 76.8068C350.502 82.0341 346.536 86.0455 341.377 88.8409C336.218 91.6136 330.093 93 323.002 93ZM314.07 78.6136H322.354C326.264 78.6136 329.57 77.9545 332.275 76.6364C335.002 75.2955 337.059 73.125 338.445 70.125C339.854 67.1023 340.559 63.0795 340.559 58.0568C340.559 53.0341 339.854 49.0341 338.445 46.0568C337.036 43.0568 334.957 40.8977 332.207 39.5795C329.479 38.2386 326.116 37.5682 322.116 37.5682H314.07V78.6136ZM374.04 93V23.1818H422.722V36.8864H390.915V51.2045H420.234V64.9432H390.915V79.2955H422.722V93H374.04Z" fill="#453A3A"/>
<path d="M457.09 23.1818L469.84 45.2386H470.385L483.272 23.1818H502.158L481.09 58.0909L502.84 93H483.476L470.385 70.7045H469.84L456.749 93H437.522L459.169 58.0909L438.067 23.1818H457.09Z" fill="white"/>
</svg>
