<?xml version="1.0" encoding="utf-8"?>
<!-- Generator: Adobe Illustrator 21.0.0, SVG Export Plug-In . SVG Version: 6.00 Build 0)  -->
<svg version="1.1" id="Capa_1" xmlns="http://www.w3.org/2000/svg" xmlns:xlink="http://www.w3.org/1999/xlink" x="0px" y="0px"
	 viewBox="0 0 700 700" style="enable-background:new 0 0 700 700;" xml:space="preserve">
<style type="text/css">
	.st0{fill:#FFFFFF;}
</style>
<path class="st0" d="M301.9,31.1c-86.8,0-168.3,41.6-219.2,111.8c-51,70.2-65.3,160.6-38.4,243.1c26.8,82.5,91.5,147.2,174,174
	s172.9,12.5,243.1-38.5l135,135c10.7,10.7,26.4,14.9,41.1,11c14.7-3.9,26.1-15.4,30.1-30.1c3.9-14.7-0.3-30.3-11-41.1l-135-135
	c39.4-54.2,57.4-121.1,50.3-187.7c-7-66.6-38.5-128.3-88.4-173.1C433.7,55.7,369,31,301.9,31.1L301.9,31.1z M301.9,488.2
	c-49.3,0-96.6-19.6-131.5-54.5s-54.5-82.2-54.5-131.5s19.6-96.6,54.5-131.5s82.2-54.5,131.5-54.5s96.6,19.6,131.5,54.5
	s54.5,82.2,54.5,131.5c-0.1,49.3-19.7,96.6-54.5,131.5C398.5,468.5,351.2,488.1,301.9,488.2z"/>
</svg>
